<svg width="126" height="47" viewBox="0 0 126 47" fill="none" xmlns="http://www.w3.org/2000/svg">
<path d="M15.3024 0.590174C13.9404 1.55593 13.2727 3.0314 13.4063 4.61417C13.7268 7.80655 17.0116 9.57711 19.7624 8.02116C22.4597 6.49204 22.62 2.38756 20.0295 0.590174C19.3618 0.160947 18.7743 -1.33514e-05 17.6526 -1.33514e-05C16.5309 -1.33514e-05 15.9434 0.160947 15.3024 0.590174Z" fill="#00807B"/>
<path d="M33.3292 0.402352C31.4331 1.12667 29.9909 2.33387 29.2699 3.80934C28.5755 5.2848 28.0414 8.47718 28.0414 11.3208V12.8767H27.1067H26.1719V16.0691V19.2883L27.0532 19.3688L27.9078 19.4493L27.988 27.8192L28.0414 36.2159H31.5132H34.985L35.0384 27.8192L35.1186 19.4493L38.1364 19.3688L41.1275 19.2883V16.096V12.8767H38.1898C34.718 12.8767 34.7714 12.9036 35.1987 10.1136C35.5726 7.67238 36.4806 6.62614 38.2432 6.62614C38.8842 6.62614 39.7922 6.81392 40.2729 7.08219L41.1275 7.53825V4.15809V0.804753L40.4064 0.482831C39.258 -4.86374e-05 34.5043 -0.0537024 33.3292 0.402352Z" fill="#00807B"/>
<path d="M0 18.2421V36.2159H3.47183H6.94365V18.2421V0.268212H3.47183H0V18.2421Z" fill="#00807B"/>
<path d="M52.6646 12.7696C48.3916 13.9232 45.0533 17.7326 44.2521 22.4004C43.8515 24.7075 44.3056 28.4364 45.2403 30.4752C46.2017 32.5677 48.4985 34.9016 50.5548 35.8406C52.0237 36.5112 52.5845 36.6185 55.4688 36.699C59.2344 36.8332 61.2107 36.3503 63.454 34.7407C64.7626 33.8017 66.7656 31.5215 66.7656 30.9313C66.7656 30.7703 65.4036 30.1801 63.7745 29.6168L60.7567 28.6242L59.6884 29.7241C58.5935 30.824 57.2047 31.3873 55.6023 31.3873C53.7863 31.3873 51.9169 29.7509 51.4094 27.7121L51.089 26.4244L59.3145 26.3439L67.5668 26.2903V24.7343C67.5401 19.0202 63.9614 14.0841 58.8605 12.7428C56.9377 12.2331 54.5341 12.2599 52.6646 12.7696ZM57.9525 17.6521C58.8338 18.0813 59.7952 19.4495 60.2225 20.8445L60.3828 21.4615H55.8427C50.6884 21.4615 50.7418 21.4883 51.8902 19.4495C52.9851 17.4643 55.8961 16.6058 57.9525 17.6521Z" fill="#00807B"/>
<path d="M113.742 12.5816C112.594 12.9572 111.819 13.4401 110.377 14.835L108.962 16.1764V14.5131V12.8767H105.49H102.018V29.6434V46.41H105.49H108.962V39.5692C108.962 35.8135 109.015 32.7284 109.069 32.7284C109.149 32.7284 109.816 33.3991 110.591 34.2039C112.487 36.2159 113.689 36.7524 116.333 36.7524C118.042 36.7524 118.736 36.6183 119.911 36.0549C122.689 34.7673 125.173 31.2798 125.813 27.7655C126.214 25.6194 125.947 21.9978 125.226 19.8785C124.558 17.8933 122.689 15.2911 121.033 14.0302C119.137 12.5816 115.879 11.9378 113.742 12.5816ZM115.558 19.6102C117.882 20.4955 119.324 23.7952 118.576 26.5583C118.095 28.3289 116.413 29.9385 114.757 30.1799C113.181 30.4213 111.392 29.5897 110.19 28.0874C108.828 26.3705 108.908 22.883 110.351 21.032C111.579 19.4761 113.689 18.8859 115.558 19.6102Z" fill="#00807B"/>
<path d="M14.1541 24.5463V36.2159H17.6259H21.0978V24.5463V12.8767H17.6259H14.1541V24.5463Z" fill="#00807B"/>
<path d="M72.4274 20.8442L72.5076 28.8386L73.3622 30.636C74.4838 33.0235 76.0595 34.6868 78.2227 35.7599C79.9586 36.5915 80.0388 36.6183 83.7242 36.6183C87.4364 36.6183 87.4898 36.6183 89.2792 35.733C92.4038 34.1771 94.4869 31.5481 95.0744 28.3825C95.2347 27.6314 95.3415 23.8488 95.3415 19.959V12.8767H91.7361H88.1308V19.5029C88.1308 26.9875 87.9705 27.7119 86.2079 29.08C84.5254 30.3409 82.9497 30.3409 81.4275 29.0532C79.7183 27.6046 79.5847 26.9071 79.5847 19.5029V12.8767H75.9527H72.3206L72.4274 20.8442Z" fill="#00807B"/>
</svg>
